<?xml version="1.0" encoding="UTF-8"?>
<svg width="200" height="200" viewBox="0 0 200 200" fill="none" xmlns="http://www.w3.org/2000/svg">
  <!-- Outer Shield Border -->
  <path d="M100 20 L160 50 L160 120 C160 120 160 160 100 180 C40 160 40 120 40 120 L40 50 L100 20 Z"
        stroke="#FFFFFF"
        stroke-width="3"
        fill="none"/>

  <!-- Inner Shield -->
  <path d="M100 35 L145 55 L145 115 C145 115 145 145 100 160 C55 145 55 115 55 115 L55 55 L100 35 Z"
        fill="#FFFFFF"
        opacity="0.1"/>

  <!-- Lightning Bolt (Zeus's symbol) -->
  <path d="M100 60 L85 90 L95 90 L90 110 L115 75 L105 75 L110 60 Z"
        fill="#FFFFFF"
        stroke="#FFFFFF"
        stroke-width="2"
        stroke-linejoin="round"/>

  <!-- Corner Accents -->
  <circle cx="100" cy="35" r="3" fill="#FFFFFF"/>
  <circle cx="55" cy="55" r="2" fill="#FFFFFF"/>
  <circle cx="145" cy="55" r="2" fill="#FFFFFF"/>

  <!-- Bottom Point -->
  <circle cx="100" cy="160" r="3" fill="#FFFFFF"/>
</svg>